<svg xmlns="http://www.w3.org/2000/svg" version="1.1" xmlns:xlink="http://www.w3.org/1999/xlink" xmlns:svgjs="http://svgjs.dev/svgjs" width="128" height="128" viewBox="0 0 128 128"><g transform="matrix(0.5659340659340659,0,0,0.5659340659340659,27.62010515396839,12.333870967741937)"><svg viewBox="0 0 109 155" data-background-color="#ffffff" preserveAspectRatio="xMidYMid meet" height="182" width="128" xmlns="http://www.w3.org/2000/svg" xmlns:xlink="http://www.w3.org/1999/xlink"><g id="tight-bounds" transform="matrix(1,0,0,1,0.24092490561098145,0.25)"><svg viewBox="0 0 108.5179947624392 154.5" height="154.5" width="108.5179947624392"><g><svg viewBox="0 0 108.5179947624392 154.5" height="154.5" width="108.5179947624392"><g><svg viewBox="0 0 108.5179947624392 154.5" height="154.5" width="108.5179947624392"><g id="textblocktransform"><svg viewBox="0 0 108.5179947624392 154.5" height="154.5" width="108.5179947624392" id="textblock"><g><svg viewBox="0 0 108.5179947624392 154.5" height="154.5" width="108.5179947624392"><g transform="matrix(1,0,0,1,0,0)"><svg width="108.5179947624392" viewBox="0.8999999999999999 -26.15 25.601788147207003 36.45" height="154.5" data-palette-color="#111111"><g class="wordmark-text-0" data-fill-palette-color="primary" id="text-0"><path d="M13 10.3L13 10.3Q9.95 10.3 7.83 9.65 5.7 9 3.75 7.65L3.75 7.65Q2.05 6.45 1.35 4.3 0.65 2.15 2.05-0.05L2.05-0.05Q2.95-1.4 4.08-1.9 5.2-2.4 6.28-2.33 7.35-2.25 8.15-1.85L8.15-1.85Q9.9-1 10.88-0.63 11.85-0.25 13.1-0.25L13.1-0.25Q14.95-0.25 16.23-1.55 17.5-2.85 17.5-5.2L17.5-5.2 17.5-9.25 16.6-9.25Q16.25-6.6 14.58-5.08 12.9-3.55 10-3.55L10-3.55Q7.8-3.55 5.7-4.65 3.6-5.75 2.25-8.15 0.9-10.55 0.9-14.5L0.9-14.5Q0.9-20.3 3.45-23.15 6-26 10.05-26L10.05-26Q12.85-26 14.85-24.13 16.85-22.25 16.85-18.9L16.85-18.9 17-18.95 17-21.75Q17-23.5 18.13-24.83 19.25-26.15 21.65-26.15L21.65-26.15Q24.2-26.15 25.33-24.83 26.45-23.5 26.45-21.75L26.45-21.75 26.5-6Q26.55-0.8 25.23 2.85 23.9 6.5 20.93 8.4 17.95 10.3 13 10.3ZM9.3-15.35L9.3-15.35Q9.3-12.65 12.9-12.65L12.9-12.65Q15.25-12.65 16.2-13.3 17.15-13.95 17.15-15.35L17.15-15.35Q17.15-16.8 16.18-17.35 15.2-17.9 12.85-17.9L12.85-17.9Q11.15-17.9 10.23-17.35 9.3-16.8 9.3-15.35Z" fill="#111111" data-fill-palette-color="primary"></path></g></svg></g></svg></g></svg></g></svg></g></svg></g><defs></defs></svg><rect width="108.5179947624392" height="154.5" fill="none" stroke="none" visibility="hidden"></rect></g></svg></g></svg>