<svg xmlns="http://www.w3.org/2000/svg" version="1.1" xmlns:xlink="http://www.w3.org/1999/xlink" xmlns:svgjs="http://svgjs.dev/svgjs" width="2000" height="510" viewBox="0 0 2000 510"><g transform="matrix(1,0,0,1,-1.2121212121212466,-1.788858880697262)"><svg viewBox="0 0 396 101" data-background-color="#ffffff" preserveAspectRatio="xMidYMid meet" height="510" width="2000" xmlns="http://www.w3.org/2000/svg" xmlns:xlink="http://www.w3.org/1999/xlink"><g id="tight-bounds" transform="matrix(1,0,0,1,0.2400000000000091,0.354264209706713)"><svg viewBox="0 0 395.52 100.29147158058656" height="100.29147158058656" width="395.52"><g><svg viewBox="0 0 395.52 100.29147158058656" height="100.29147158058656" width="395.52"><g><svg viewBox="0 0 395.52 100.29147158058656" height="100.29147158058656" width="395.52"><g id="textblocktransform"><svg viewBox="0 0 395.52 100.29147158058656" height="100.29147158058656" width="395.52" id="textblock"><g><svg viewBox="0 0 395.52 100.29147158058656" height="100.29147158058656" width="395.52"><g transform="matrix(1,0,0,1,0,0)"><svg width="395.52" viewBox="0.8999999999999999 -38.55 192.63 48.85" height="100.29147158058656" data-palette-color="#111111"><g class="wordmark-text-0" data-fill-palette-color="primary" id="text-0"><path d="M13 10.3L13 10.3Q9.95 10.3 7.83 9.65 5.7 9 3.75 7.65L3.75 7.65Q2.05 6.45 1.35 4.3 0.65 2.15 2.05-0.05L2.05-0.05Q2.95-1.4 4.08-1.9 5.2-2.4 6.28-2.33 7.35-2.25 8.15-1.85L8.15-1.85Q9.9-1 10.88-0.63 11.85-0.25 13.1-0.25L13.1-0.25Q14.95-0.25 16.23-1.55 17.5-2.85 17.5-5.2L17.5-5.2 17.5-9.25 16.6-9.25Q16.25-6.6 14.58-5.08 12.9-3.55 10-3.55L10-3.55Q7.8-3.55 5.7-4.65 3.6-5.75 2.25-8.15 0.9-10.55 0.9-14.5L0.9-14.5Q0.9-20.3 3.45-23.15 6-26 10.05-26L10.05-26Q12.85-26 14.85-24.13 16.85-22.25 16.85-18.9L16.85-18.9 17-18.95 17-21.75Q17-23.5 18.13-24.83 19.25-26.15 21.65-26.15L21.65-26.15Q24.2-26.15 25.33-24.83 26.45-23.5 26.45-21.75L26.45-21.75 26.5-6Q26.55-0.8 25.23 2.85 23.9 6.5 20.93 8.4 17.95 10.3 13 10.3ZM9.3-15.35L9.3-15.35Q9.3-12.65 12.9-12.65L12.9-12.65Q15.25-12.65 16.2-13.3 17.15-13.95 17.15-15.35L17.15-15.35Q17.15-16.8 16.18-17.35 15.2-17.9 12.85-17.9L12.85-17.9Q11.15-17.9 10.23-17.35 9.3-16.8 9.3-15.35ZM41.65 0.1L41.65 0.1Q35.8 0.1 32.32-3.38 28.85-6.85 28.85-13.2L28.85-13.2Q28.85-17.1 30.45-20.05 32.05-23 34.92-24.68 37.8-26.35 41.65-26.35L41.65-26.35Q45.95-26.35 48.8-24.68 51.65-23 53.07-20.05 54.5-17.1 54.5-13.2L54.5-13.2Q54.5-6.85 51.32-3.38 48.15 0.1 41.65 0.1ZM34.8-14.05L34.8-14.05Q34.8-12.5 36.35-11.88 37.9-11.25 41.65-11.25L41.65-11.25Q45.4-11.25 46.95-11.88 48.5-12.5 48.5-14.05L48.5-14.05Q48.5-15.55 46.95-16.15 45.4-16.75 41.65-16.75L41.65-16.75Q37.9-16.75 36.35-16.15 34.8-15.55 34.8-14.05ZM75.9 0L68-0.05Q65.7-0.15 63.72-0.7 61.75-1.25 60.25-2.58 58.75-3.9 57.92-6.25 57.1-8.6 57.1-12.25L57.1-12.25Q57.1-15.8 58.07-18.4 59.05-21 60.4-22.55 61.75-24.1 62.85-24.45L62.85-24.45 62.6-25.4 61.75-25.4Q59.45-25.4 58.12-26.88 56.8-28.35 56.75-30.85L56.75-30.85Q56.7-33.35 58.07-34.88 59.45-36.4 61.75-36.4L61.75-36.4 75.5-36.4Q80.9-36.4 83.3-33.83 85.7-31.25 85.7-27.15L85.7-27.15Q85.7-23.85 84.17-21.65 82.65-19.45 79.59-19L79.59-19 79.59-18.25Q82.9-18.1 84.97-15.98 87.05-13.85 87.05-9.7L87.05-9.7Q87.05-5.2 84.45-2.58 81.84 0.05 75.9 0L75.9 0ZM66.65-24.65L66.65-22.5Q66.65-21.4 67.05-21.05 67.45-20.7 68.55-20.7L68.55-20.7 73.15-20.7Q75.05-20.7 76.05-21.28 77.05-21.85 77.05-23.55L77.05-23.55Q77.05-25.3 76.05-25.85 75.05-26.4 73.15-26.4L73.15-26.4 68.55-26.4Q67.45-26.4 67.05-26.1 66.65-25.8 66.65-24.65L66.65-24.65ZM66.65-15.1L66.65-12.45Q66.65-11.35 67.07-10.95 67.5-10.55 68.65-10.55L68.65-10.55 73.8-10.55Q75.75-10.55 76.8-11.25 77.84-11.95 77.84-13.75L77.84-13.75Q77.84-15.55 76.8-16.23 75.75-16.9 73.8-16.9L73.8-16.9 68.65-16.9Q67.5-16.9 67.07-16.55 66.65-16.2 66.65-15.1L66.65-15.1ZM93.84 0L93.84 0Q91.39 0 90.17-1.3 88.94-2.6 88.94-4.55L88.94-4.55 88.94-33.55Q88.94-35.7 90.17-37.13 91.39-38.55 93.84-38.55L93.84-38.55Q96.04-38.55 97.24-37.13 98.44-35.7 98.44-33.65L98.44-33.65 98.44-4.55Q98.44-2.6 97.24-1.3 96.04 0 93.84 0ZM113.54 0.1L113.54 0.1Q107.69 0.1 104.22-3.38 100.74-6.85 100.74-13.2L100.74-13.2Q100.74-17.1 102.34-20.05 103.94-23 106.82-24.68 109.69-26.35 113.54-26.35L113.54-26.35Q117.84-26.35 120.69-24.68 123.54-23 124.97-20.05 126.39-17.1 126.39-13.2L126.39-13.2Q126.39-6.85 123.22-3.38 120.04 0.1 113.54 0.1ZM106.69-14.05L106.69-14.05Q106.69-12.5 108.24-11.88 109.79-11.25 113.54-11.25L113.54-11.25Q117.29-11.25 118.84-11.88 120.39-12.5 120.39-14.05L120.39-14.05Q120.39-15.55 118.84-16.15 117.29-16.75 113.54-16.75L113.54-16.75Q109.79-16.75 108.24-16.15 106.69-15.55 106.69-14.05ZM140.49 10.3L140.49 10.3Q137.44 10.3 135.31 9.65 133.19 9 131.24 7.65L131.24 7.65Q129.54 6.45 128.84 4.3 128.14 2.15 129.54-0.05L129.54-0.05Q130.44-1.4 131.56-1.9 132.69-2.4 133.76-2.33 134.84-2.25 135.64-1.85L135.64-1.85Q137.39-1 138.36-0.63 139.34-0.25 140.59-0.25L140.59-0.25Q142.44-0.25 143.71-1.55 144.99-2.85 144.99-5.2L144.99-5.2 144.99-9.25 144.09-9.25Q143.74-6.6 142.06-5.08 140.39-3.55 137.49-3.55L137.49-3.55Q135.29-3.55 133.19-4.65 131.09-5.75 129.74-8.15 128.39-10.55 128.39-14.5L128.39-14.5Q128.39-20.3 130.94-23.15 133.49-26 137.54-26L137.54-26Q140.34-26 142.34-24.13 144.34-22.25 144.34-18.9L144.34-18.9 144.49-18.95 144.49-21.75Q144.49-23.5 145.61-24.83 146.74-26.15 149.14-26.15L149.14-26.15Q151.69-26.15 152.81-24.83 153.94-23.5 153.94-21.75L153.94-21.75 153.99-6Q154.04-0.8 152.71 2.85 151.39 6.5 148.41 8.4 145.44 10.3 140.49 10.3ZM136.79-15.35L136.79-15.35Q136.79-12.65 140.39-12.65L140.39-12.65Q142.74-12.65 143.69-13.3 144.64-13.95 144.64-15.35L144.64-15.35Q144.64-16.8 143.66-17.35 142.69-17.9 140.34-17.9L140.34-17.9Q138.64-17.9 137.71-17.35 136.79-16.8 136.79-15.35ZM156.34-31.95L156.34-31.95Q156.34-34.1 157.66-35.43 158.99-36.75 161.34-36.75L161.34-36.75Q163.84-36.75 165.06-35.45 166.29-34.15 166.29-32L166.29-32Q166.29-29.9 165.06-28.63 163.84-27.35 161.34-27.35L161.34-27.35Q158.89-27.35 157.61-28.63 156.34-29.9 156.34-31.95ZM161.34 0L161.34 0Q158.99 0 157.84-1.3 156.69-2.6 156.69-4.55L156.69-4.55 156.69-21.65Q156.69-23.8 157.84-25.05 158.99-26.3 161.34-26.3L161.34-26.3Q163.69-26.3 164.86-25.05 166.04-23.8 166.04-21.75L166.04-21.75 166.04-4.55Q166.04-2.6 164.81-1.3 163.59 0 161.34 0ZM173.63 0L173.63 0Q171.43 0 170.11-1.33 168.78-2.65 168.78-4.6L168.78-4.6 168.78-21.15Q168.78-23.25 170.03-24.7 171.28-26.15 173.63-26.15L173.63-26.15Q175.93-26.15 177.13-24.7 178.33-23.25 178.33-21.05L178.33-21.05 178.33-18.55 179.23-18.55Q179.23-21.4 180.26-23.05 181.28-24.7 182.88-25.43 184.48-26.15 186.08-26.15L186.08-26.15Q189.93-26.15 191.73-23.38 193.53-20.6 193.53-15.5L193.53-15.5 193.53-4.6Q193.53-2.65 192.23-1.33 190.93 0 188.73 0L188.73 0Q186.48 0 185.16-1.33 183.83-2.65 183.83-4.6L183.83-4.6 183.83-13.45Q183.83-15.25 183.16-16.25 182.48-17.25 181.18-17.25L181.18-17.25Q179.68-17.25 179.01-16.15 178.33-15.05 178.33-13.35L178.33-13.35 178.33-4.6Q178.33-2.65 177.08-1.33 175.83 0 173.63 0Z" fill="#000000" data-fill-palette-color="primary"></path></g></svg></g></svg></g></svg></g></svg></g></svg></g><defs></defs></svg><rect width="395.52" height="100.29147158058656" fill="none" stroke="none" visibility="hidden"></rect></g></svg></g></svg>